<?xml version="1.0" standalone="no"?>
<!DOCTYPE svg PUBLIC "-//W3C//DTD SVG 20010904//EN"
 "http://www.w3.org/TR/2001/REC-SVG-20010904/DTD/svg10.dtd">
<svg version="1.0" xmlns="http://www.w3.org/2000/svg"
 width="106.000000pt" height="106.000000pt" viewBox="0 0 106.000000 106.000000"
 preserveAspectRatio="xMidYMid meet">
<metadata>
Created by potrace 1.11, written by Peter Selinger 2001-2013
</metadata>
<g transform="translate(0.000000,106.000000) scale(0.100000,-0.100000)"
fill="#000000" stroke="none">
<path d="M410 750 c-64 -12 -169 -52 -226 -86 l-49 -29 65 -6 c36 -3 60 -6 55
-7 -6 -1 -43 -27 -84 -58 l-74 -55 -24 24 -24 24 40 36 41 37 -65 0 -65 0 0
-315 0 -315 530 0 530 0 0 315 0 315 -66 0 -67 0 43 -37 42 -38 -26 -24 -25
-24 -43 35 c-24 19 -61 47 -83 61 l-40 27 65 0 65 1 -54 34 c-88 56 -190 85
-311 90 -58 2 -125 0 -150 -5z m222 -74 c41 -8 89 -21 108 -29 32 -14 17 -15
-210 -15 -229 0 -243 1 -210 15 38 17 155 41 207 42 17 1 64 -5 105 -13z m63
-92 c54 -18 171 -90 194 -118 12 -14 11 -20 -9 -41 l-23 -24 -38 32 c-163 140
-404 141 -575 1 l-41 -33 -24 25 -24 26 44 38 c54 47 132 87 203 105 70 18
227 12 293 -11z m-4 -161 c35 -18 75 -43 87 -56 l22 -23 -25 -24 -25 -23 -22
20 c-45 41 -111 67 -180 71 -79 5 -126 -9 -192 -55 l-48 -34 -24 22 c-27 25
-23 34 29 71 69 49 137 69 227 66 73 -3 95 -8 151 -35z m-60 -133 c57 -30 66
-46 40 -74 l-23 -24 -35 24 c-25 17 -50 24 -83 24 -33 0 -58 -7 -83 -24 l-35
-24 -23 24 c-26 27 -17 44 35 71 69 36 139 37 207 3z"/>
</g>
</svg>
